<?xml version="1.0" encoding="utf-8"?>
<!-- Generator: Adobe Illustrator 18.0.0, SVG Export Plug-In . SVG Version: 6.00 Build 0)  -->
<!DOCTYPE svg PUBLIC "-//W3C//DTD SVG 1.1//EN" "http://www.w3.org/Graphics/SVG/1.1/DTD/svg11.dtd">
<svg version="1.1" id="Слой_1" xmlns="http://www.w3.org/2000/svg" xmlns:xlink="http://www.w3.org/1999/xlink" x="0px" y="0px"
	 viewBox="172.7 0 486.1 1024" enable-background="new 172.7 0 486.1 1024" xml:space="preserve">
<path fill="#808080"      d="
	M620.7,267c0,0-20.2-39.4-30-42.9c0,0-19.3-29.2-29.2-42c0,0-6-19.7-25.8-27.4c0,0-23.1-18-69.4-19.3c0,0-1.7-2.6-9.9-3
	c0,0-10.7-3.4-14.6-7.3c0,0-4.3-6-18.9,0c0,0-18.4-15.4-19.7-26.6c0,0,5.2-3.6,4.5-12.5c0,0,2.2-27.8-11.5-31c0,0-3.2-17.9-9.9-19.5
	c0,0-2.2-10.5-11.8-13.7c0,0-3.8-9.3-12.1-11.5c-0.4-0.1-0.8-0.2-1.3-0.3c-9.3-1.6-17.2-7.3-28.7-3.8c0,0-23.6-2.2-35.1,18.2
	c0,0-15,9.9-11.8,23c0,0-4.8,17.2,4.5,19.5c0,0,2.6,16.9,6.7,22.7c0,0,1,6.7,3.8,8.6c0,0,2.2,2.4,4.2,4.8c-1.4,0.6-2.7,1.6-3.8,2.8
	l-11,13.2c-0.1,0-0.2,0-0.3,0l-1.6-0.6c0,0,1.3-5.1,3.2-7.7c0,0,5.7-10.5-1.6-14c0,0-8.3,6.7-10.9,14.4l-5.1,8.3
	c0,0-7.3,2.2-13.7,11.2c0,0-11.5,5.1-12.8,6.1c0,0-2.2,2.2-2.9,3.5c0,0-12.5,6.7-14.4,14c0,0-2.9,20.8-2.2,25.5c0,0-0.6,13.1-2.6,15
	l-3.2-1l-2.9,7.7c0,0-15.3-0.6-16,3.5c0,0-3.2,25.2-10.9,40.2c0,0-11.5,28.4-10.9,43.4c0,0-3.2,21.7-7.7,35.8c0,0-5.4,18.5,7.7,31.6
	c0,0,15,5.4,29.1,0c0,0,40.9-8.9,78.9-35.8c0,0,33.5-25.9,34.2-29.7c0,0,10.9,91.3,8.9,104.7c0,0-8.3,74.7-11.2,85.2
	c0,0-6.7,34.2,0.3,61c0,0,4.5,40.9,15.6,33.2l12.5-5.7c0,0-2.2,38-11.5,72.2c0,0-13.1,37.7-9.9,51.1c0,0-7.7,54.3-18.2,86.2
	c0,0-9.3,17.6-7,21.7c0,0-9.6,16-8.3,20.1c0,0-13.7,16.9-10.9,21.1c0,0-8.5,2.6-15.9,1c0,0-7.8-1.5-12.2,0.5c0,0-18.2-3.8-28.1,11.2
	c0,0-8.6,5.4-1,16.3c0,0,19.4,22.7,53.5,17.2c0,0,22.6-5.7,26.7-2.9v5.2c0,0,35,10.8,48.5-4.6l-0.2-7c0,0,2-9.3,2-10.9
	c0,0,9.3-14.7,4.5-22c0,0,2.9-5.7,2.3-8.3c0,0,7-10.5,8-17.6c0,0,16-50.4,16-62.3c0,0,8.9-45,24.9-77.3c0,0,24.3-45.7,24.3-47.3
	c0,0,26.5,76.9,30.3,84.6c0,0,5.7,21.4,14,43.7c0,0,6.7,54.9,11.8,61.9c0,0,6.7,45,1,58.4c0,0-6.4,10.2,1,19.5
	c0,0-4.8,18.5-1.9,26.5l1.3,11.8c0,0-11.2,24.6-11.2,29.7c0,0-7,19.2-6.4,25.9c0,0-2.2,17.9,1.3,21.1c0,0,15,14,40.9,5.7
	c0,0,28.7-16.3,27.1-44.4c0,0-1-7.3,2.2-12.1l2.6-0.6c0,0,8-8.6,7-18.2l-0.1-8c0,0,0.8-7,0.8-9.3c0-2.2,0-2.2,0-2.2s5.8-25-0.6-33.3
	c0,0,3.6-7,3-13.7c0,0,5.8-47.3,3.3-59.7c0,0-6-68-21-101.2c0,0-5.1-38.3-7.6-42.1c0,0,3.8-54.3,2.2-59.4l0.6-8
	c0,0,11.8-3.8,19.5-11.5c0,0,10.2-7.7,28.7-10.5c0,0,4.5-1,5.7-4.8c0,0-13.1-82.7-18.5-92.9c0,0-6.1-19.6-12.1-36
	c12.5-13.1,33.5-35.5,34.1-37.3c0,0,36.4-38.6,39.4-44.6c0,0,23.2-25.3,23.2-34.7C658.8,336.9,639.1,279,620.7,267z M360.6,163.5
	c0,0-6.7,7.7-8,17.6c0,0-32.9,16-34.2,18.2c0,0-14.4,14-12.8,16.3c0,0-8.3,7-8.9,10.5c0,0-11.8,5.3-23.9,18.2
	c0,0-18.5,16.9-20.1,15.3c0,0,3.2-30.3,12.5-43.4l-5.7-4.2l2.2-2.2l-1.3-1.3c0,0,13.7-9.9,20.8-20.8c0,0,12.1-14.4,12.8-16.3
	c0,0,16.6-12.8,16-17.2c0,0-0.6-5.9-8.9-4.8l17.6-21.1c1.5,1.7,3.2,3.3,5,4.6c0,0,5.6,6.4,8.8,10.2c0,0,11,18.5,26.4,12.5
	C358.6,155.5,360.9,160,360.6,163.5z M556.3,356.2c0,0-10.4,9.9-16.5,17.5c-1.7-8.4-3.2-19.2-2.4-28.5c0,0,1.6-24.9,0.3-35.4
	c0,0,1.4-19.7,4.4-20.4c0,0,6,5.5,9,10.7c0,0,3.4,7.7,8.6,10.7c0,0,8.2,17.6,10.7,18C570.5,328.7,559.8,351.9,556.3,356.2z"/>
</svg>
