<?xml version="1.0" encoding="utf-8"?>
<!-- Generator: Adobe Illustrator 22.1.0, SVG Export Plug-In . SVG Version: 6.00 Build 0)  -->
<svg version="1.1" id="Layer_1" xmlns="http://www.w3.org/2000/svg" xmlns:xlink="http://www.w3.org/1999/xlink" x="0px" y="0px"
	 viewBox="0 0 911.5 176" style="enable-background:new 0 0 911.5 176;" xml:space="preserve">
<style type="text/css">
	.st0{fill:#363237;}
	.st1{enable-background:new    ;}
	.st2{clip-path:url(#SVGID_2_);enable-background:new    ;}
	.st3{fill:#A7A9AC;}
	.st4{clip-path:url(#SVGID_4_);enable-background:new    ;}
	.st5{clip-path:url(#SVGID_6_);enable-background:new    ;}
	.st6{clip-path:url(#SVGID_8_);enable-background:new    ;}
	.st7{fill:#A7A9AC;stroke:#002C4F;stroke-miterlimit:10;}
	.st8{fill:#808080;}
	.st9{fill:#9F9F9F;}
	.st10{fill:#00182B;}
	.st11{fill:#001E35;}
	.st12{fill:#002C50;}
	.st13{fill:#ECECEC;}
	.st14{fill:#D09683;}
	.st15{fill:#FFFFFF;}
</style>
<g>
	<g>
		<path class="st0" d="M228,73c-1.2-5-3.6-9.9-10.1-10c-5.8,0-8,4.1-8,8.1c0,5.4,3.5,8.1,9.4,11.1c5.8,3,12.7,6.5,12.7,15
			c0,8-6.7,14.3-16.3,14.2c-4.1,0-8.3-1.3-11.4-2.4c-0.5-1.9-1.5-8-2-11.6l2.3-0.6c1.2,4.7,4.5,11.7,12.1,11.8
			c5.6,0,8.9-3.5,8.9-8.9c0-5.6-3.8-8.2-9.5-11.3c-4.8-2.6-12.2-6.4-12.2-14.9c0-7.2,5.3-13.1,15.1-13.1c4.4,0,8.6,1.2,10.1,1.3
			c0.3,2.7,0.6,5.9,1.1,10.8L228,73z"/>
		<path class="st0" d="M238.5,110.4l0-2.1c6.1-0.7,6.7-1,6.7-7.3l0.1-29.8c0-6.5-0.6-6.8-6.6-7.5l0-2.1l19.8,0.1l0,2.1
			c-6.1,0.7-6.7,1-6.8,7.4l-0.1,29.8c0,6.5,0.6,6.7,6.7,7.4l0,2.1L238.5,110.4z"/>
		<path class="st0" d="M290.8,73.2c-1.2-5-3.6-9.9-10.1-10c-5.8,0-8,4.1-8,8.1c0,5.4,3.5,8.1,9.4,11.1c5.8,3,12.7,6.5,12.7,15
			c0,8-6.7,14.3-16.3,14.2c-4.1,0-8.3-1.3-11.4-2.4c-0.5-1.9-1.5-8-2-11.6l2.3-0.6c1.2,4.7,4.5,11.7,12.1,11.8
			c5.6,0,8.9-3.5,8.9-8.9c0-5.6-3.8-8.2-9.5-11.3c-4.8-2.6-12.2-6.4-12.2-14.9c0-7.2,5.3-13.1,15.1-13.1c4.4,0,8.6,1.2,10.1,1.3
			c0.3,2.7,0.6,5.9,1.1,10.8L290.8,73.2z"/>
		<path class="st0" d="M301.5,61.7l19.8,0.1l0,2.1c-5.8,0.5-6.8,1-6.8,7.7l0,12.9c1.5-0.1,3.2-1.3,5.3-3.4c4.2-4,9.1-9.1,12.5-13
			c2.2-2.5,2-3.5-1.2-4l-2.1-0.2l0-2.1l18,0.1l0,2.1c-5.6,0.7-7.5,1-12.5,6.2c-2.2,2.2-8,7.9-12.8,12.6c5.6,6.8,13.8,16.4,17.6,20.6
			c3.8,4.1,4.7,4.8,9.3,5.3l0,2.1l-11.8,0c-5.7-6.6-11.6-13.9-18.4-21.9c-1.7-2.1-3-2.3-4.1-2.2l0,14.3c0,6.5,0.6,7.1,6.8,7.6l0,2.1
			l-19.8-0.1l0-2.1c6.1-0.5,6.7-1,6.7-7.6l0.1-29.3c0-6.8-0.5-7.3-6.6-7.8L301.5,61.7z"/>
		<path class="st0" d="M374.6,110.8l0-2.1c4.8-0.6,5.4-1.3,4.4-4.2c-1-2.9-2.4-6.7-4-11.4l-16-0.1c-1.2,3.4-2.3,6.3-3.4,9.4
			c-1.6,4.9-0.6,5.5,5.5,6.3l0,2.1l-17.1-0.1l0-2.1c4.7-0.6,5.8-1.1,8.5-7.9L368,61.3l2.4-0.4C375,73.7,380,88,384.6,101
			c2.3,6.5,3,7.1,8.3,7.8l0,2.1L374.6,110.8z M367.3,70.7c-2.4,6.5-4.9,13.3-7.2,19.2l13.8,0L367.3,70.7z"/>
		<path class="st0" d="M478.5,64.4c-5.2,0.7-5.9,1.3-7.9,7.5c-2.5,7.5-8.4,26.6-12.6,40l-2.5,0c-3.8-11.7-8.7-26.3-12.5-37.4
			c-4.3,12.9-8.7,25.7-12.6,37.3l-2.4,0c-3.7-12.9-7.8-27-11.8-40.2c-1.9-6.1-2.7-6.9-7.5-7.5l0-2.1l18.3,0.1l0,2.1
			c-5.5,0.6-5.6,1.4-4.6,5.2c2.9,10.2,5.8,20.2,8.8,30.8c4.1-11.9,8.6-25,12.4-37.3l2.4,0c4.1,12.8,8.2,24.7,12.5,37.5
			c3.1-10,7.4-23.3,9.1-29.9c1.1-4.4,0.5-5.3-5.8-6.1l0-2.1l16.9,0.1L478.5,64.4z"/>
		<path class="st0" d="M518.8,99.3c-0.5,2-2.5,9.7-3.2,11.9l-36-0.1l0-2.1c6.9-0.5,7.4-1.2,7.4-7.3l0.1-29.7c0-6.7-0.8-7.1-6.3-7.6
			l0-2.1l22.6,0.1c7,0,9.8,0,10.7-0.1c0.1,1.9,0.3,7.5,0.6,11.5l-2.2,0.4c-0.7-2.6-1.4-4.1-2.2-5.7c-1.2-2.5-2.9-3-7.3-3l-7,0
			c-2.3,0-2.4,0.2-2.4,2.4l-0.1,16.6l8.2,0c5.6,0,5.9-1.1,6.8-6.2l2.3,0l0,15.5l-2.3,0c-0.9-5.4-1.5-6.2-6.9-6.2l-8.1,0l0,15
			c0,5.3,1.6,5.7,5.3,5.8l6.9,0c4.5,0,5.3-0.7,6.9-2.6c1.4-1.6,3-4.7,4-6.9L518.8,99.3z"/>
		<path class="st0" d="M549.4,84.9c7.1,1.2,12.9,4.7,12.8,12c0,5.1-2.8,9.2-7.2,11.5c-3.9,2.2-7.6,2.9-12.8,2.9l-18.2-0.1l0-2.1
			c6.3-0.6,6.7-1.3,6.7-7.2l0.1-30.1c0-6.2-0.6-6.8-6.6-7.3l0-2.1l19.4,0.1c5.6,0,9,1,11.4,2.7c2.6,1.8,4.4,4.6,4.3,8.4
			C559.2,80.7,553.5,83.9,549.4,84.9z M537,101.8c0,5.4,1.2,6.8,6.5,6.8c5.8,0,11.4-3.1,11.4-11c0-7.7-5.3-11-14.3-11l-3.6,0
			L537,101.8z M540.8,84c8.1,0,11.5-3.3,11.5-9.4c0-5.3-3.2-9.3-10.3-9.4c-2.1,0-3.4,0.2-4.1,0.7c-0.6,0.4-0.8,1.3-0.8,3.7l0,14.4
			L540.8,84z"/>
		<path class="st0" d="M606.2,62.7c10.4,0,17,2.2,21.6,6.6c3.6,3.6,6.3,8.9,6.2,16.1c0,8.8-3.6,15.9-9.3,20.3
			c-5.6,4.3-12.8,5.9-21.9,5.9l-17.3-0.1l0-2.1c6.4-0.6,6.7-1.1,6.7-7.3l0.1-30c0-6.5-0.9-6.8-6.6-7.4l0-2.1L606.2,62.7z
			 M598.6,101.5c0,5.6,2.3,7.2,7.9,7.2c13.3,0,20.2-9.2,20.2-22.3c0-8.2-2.7-14.4-8.5-18.1c-3.4-2.2-7.7-3-12.6-3
			c-3.3,0-5.1,0.4-5.8,1c-0.7,0.4-1,1.3-1,4.2L598.6,101.5z"/>
		<path class="st0" d="M679.2,99.8c-0.5,2-2.5,9.7-3.2,11.9l-36-0.1l0-2.1c6.9-0.5,7.4-1.2,7.4-7.3l0.1-29.7c0-6.7-0.8-7.1-6.3-7.6
			l0-2.1l22.6,0.1c7,0,9.8,0,10.7-0.1c0.1,1.9,0.3,7.5,0.6,11.5l-2.2,0.4c-0.7-2.6-1.4-4.1-2.2-5.7c-1.2-2.5-2.9-3-7.3-3l-7,0
			c-2.3,0-2.4,0.2-2.5,2.4l-0.1,16.6l8.2,0c5.6,0,5.9-1.1,6.8-6.2l2.3,0l-0.1,15.5l-2.3,0c-0.9-5.4-1.5-6.2-6.9-6.2l-8.1,0l0,15
			c0,5.3,1.6,5.7,5.3,5.8l6.9,0c4.5,0,5.3-0.7,6.9-2.6c1.4-1.6,3-4.7,4-6.9L679.2,99.8z"/>
		<path class="st0" d="M710.2,74.5c-1.2-5-3.6-9.9-10.1-10c-5.8,0-8,4.1-8,8.1c0,5.4,3.5,8.1,9.4,11.1s12.7,6.5,12.7,15
			c0,8-6.7,14.3-16.3,14.2c-4.1,0-8.3-1.3-11.4-2.4c-0.5-1.9-1.5-8-2-11.6l2.3-0.6c1.2,4.7,4.5,11.7,12.1,11.8
			c5.6,0,8.9-3.5,8.9-8.9c0-5.6-3.8-8.2-9.5-11.3c-4.8-2.6-12.2-6.4-12.2-14.9c0-7.2,5.3-13.1,15.1-13.1c4.4,0,8.6,1.2,10.1,1.3
			c0.3,2.7,0.6,5.9,1.1,10.8L710.2,74.5z"/>
		<path class="st0" d="M720.7,111.9l0-2.1c6.1-0.7,6.7-1,6.7-7.3l0.1-29.8c0-6.5-0.6-6.8-6.6-7.5l0-2.1l19.8,0.1l0,2.1
			c-6.1,0.7-6.7,1-6.8,7.4l-0.1,29.8c0,6.5,0.6,6.7,6.7,7.4l0,2.1L720.7,111.9z"/>
		<path class="st0" d="M795.5,91.6c-4.6,0.6-4.9,1-4.9,5.5l0,6.3c0,2.6,0.1,5.1,0.4,7.1c-4.6,1-10.4,2.7-16.6,2.7
			c-16.5-0.1-27.2-10.7-27.2-25.8c0.1-16.3,12.8-25.3,27.6-25.2c7.8,0,13.1,1.8,15.4,1.9c0.1,2.8,0.5,7.4,1.1,12.2l-2.2,0.4
			c-1.8-6.4-4-9.3-8.6-10.9c-1.7-0.6-4.2-0.8-6.7-0.8c-11.3,0-18.8,7.4-18.9,21.6c0,12,5.9,23.8,20.4,23.9c2.5,0,4.8-0.4,6.3-1.2
			c1.6-0.9,2.4-1.9,2.5-5l0-6.1c0-5.5-0.6-6.1-7.7-6.6l0-2.2l19,0.1L795.5,91.6z"/>
		<path class="st0" d="M852.8,65.6c-4.7,0.5-6.3,1.3-6.5,4.7c-0.1,2.4-0.2,5.6-0.3,12.5l-0.1,30.1l-2.8,0l-31.5-39.4l-0.1,18.8
			c0,6.8,0.2,10.1,0.3,12.3c0.1,3.8,2,5,7.3,5.4l0,2.1l-18-0.1l0-2.1c4.6-0.4,6.4-1.5,6.7-5.2c0.2-2.4,0.4-5.8,0.4-12.6l0.1-19.2
			c0-2.1-0.1-3.3-1.5-5c-1.4-1.9-3-2.3-6.6-2.7l0-2.1l11.1,0l31.3,37.9l0.1-18.4c0-7-0.1-10.2-0.3-12.5c-0.2-3.4-1.9-4.4-7.8-4.8
			l0-2.1l18.3,0.1L852.8,65.6z"/>
		<path class="st0" d="M883.8,75.1c-1.2-5-3.6-9.9-10.1-10c-5.8,0-8,4.1-8,8.1c0,5.4,3.5,8.1,9.4,11.1c5.8,3,12.7,6.5,12.7,15
			c0,8-6.7,14.3-16.3,14.2c-4.1,0-8.3-1.3-11.4-2.4c-0.5-1.9-1.5-8-2-11.6l2.3-0.6c1.2,4.7,4.5,11.7,12.1,11.8
			c5.6,0,8.9-3.5,8.9-8.9c0-5.6-3.8-8.2-9.5-11.3c-4.8-2.6-12.2-6.4-12.2-14.9c0-7.2,5.3-13.1,15.1-13.1c4.4,0,8.6,1.2,10.1,1.3
			c0.3,2.7,0.6,5.9,1.1,10.8L883.8,75.1z"/>
	</g>
</g>
<polygon class="st0" points="203.4,50.6 215.8,59.3 228.8,50.6 216.1,55.7 "/>
<polygon class="st0" points="266.1,50.6 278.5,59.3 291.5,50.6 278.8,55.7 "/>
<g>
	<g class="st1">
		<g class="st1">
			<defs>
				<path id="SVGID_1_" class="st1" d="M168.3,67l1.8,9.8c-0.4-2.1-0.9-4.1-1.5-6.2C157.8,33.2,114.8,12,72.9,23.3
					C33.3,34,8.5,70,15.1,105.5l-1.8-9.8C6.7,60.2,31.4,24.2,71,13.5C113,2.2,156,23.4,166.9,60.8C167.5,62.9,168,65,168.3,67z"/>
			</defs>
			<use xlink:href="#SVGID_1_"  style="overflow:visible;fill:#A7A9AC;"/>
			<clipPath id="SVGID_2_">
				<use xlink:href="#SVGID_1_"  style="overflow:visible;"/>
			</clipPath>
			<g class="st2">
				<path class="st3" d="M168.3,67l1.8,9.8c-0.4-2.1-0.9-4.1-1.5-6.2C157.8,33.2,114.8,12,72.9,23.3c-0.4,0.1-0.8,0.2-1.1,0.3
					l-1.8-9.8c0.4-0.1,0.8-0.2,1.1-0.3C113,2.2,156,23.4,166.9,60.8C167.5,62.9,168,65,168.3,67"/>
				<path class="st3" d="M69.9,13.9l1.8,9.8c-5.3,1.5-10.3,3.4-15,5.8L55,19.6C59.7,17.3,64.7,15.4,69.9,13.9"/>
				<path class="st3" d="M55,19.6l1.8,9.8c-4.2,2.1-8.2,4.5-11.9,7.2l-1.8-9.8C46.7,24.2,50.7,21.7,55,19.6"/>
				<path class="st3" d="M43.1,26.9l1.8,9.8c-3.9,2.8-7.5,6-10.7,9.4l-1.8-9.8C35.6,32.8,39.2,29.7,43.1,26.9"/>
				<path class="st3" d="M32.3,36.2l1.8,9.8c-4.1,4.3-7.6,8.9-10.6,13.9l-1.8-9.8C24.7,45.2,28.2,40.5,32.3,36.2"/>
				<path class="st3" d="M21.8,50.1l1.8,9.8c-8.1,13.8-11.4,29.7-8.5,45.6l-1.8-9.8C10.3,79.8,13.7,63.9,21.8,50.1"/>
				<polyline class="st3" points="13.3,95.7 15.1,105.5 15.1,105.5 13.3,95.7 13.3,95.7 				"/>
			</g>
		</g>
		<g class="st1">
			<defs>
				<path id="SVGID_3_" class="st1" d="M170.2,76.8c5.7,30.8-12.2,61.9-42.9,76.6c-0.6-3.3-1.2-6.5-1.8-9.8
					C156.2,129,174,97.8,168.3,67C168.9,70,169.6,73.9,170.2,76.8z"/>
			</defs>
			<use xlink:href="#SVGID_3_"  style="overflow:visible;fill:#A7A9AC;"/>
			<clipPath id="SVGID_4_">
				<use xlink:href="#SVGID_3_"  style="overflow:visible;"/>
			</clipPath>
			<g class="st4">
				<polyline class="st3" points="168.3,67 170.2,76.8 170.2,76.8 168.3,67 168.3,67 				"/>
				<path class="st3" d="M168.3,67l1.8,9.8c2.9,15.9-0.4,31.8-8.5,45.6l-1.8-9.8C168,98.8,171.3,82.9,168.3,67"/>
				<path class="st3" d="M159.8,112.6l1.8,9.8c-2.9,5-6.5,9.6-10.6,13.9l-1.8-9.8C153.4,122.2,156.9,117.5,159.8,112.6"/>
				<path class="st3" d="M149.3,126.5l1.8,9.8c-3.2,3.4-6.8,6.5-10.7,9.4l-1.8-9.8C142.5,133,146.1,129.9,149.3,126.5"/>
				<path class="st3" d="M138.6,135.8l1.8,9.8c-3.7,2.7-7.7,5.1-11.9,7.2l-1.8-9.8C130.9,141,134.9,138.5,138.6,135.8"/>
				<path class="st3" d="M126.7,143.1l1.8,9.8c-4.7,2.3-9.7,4.3-15,5.8l-1.8-9.8C117,147.3,122,145.4,126.7,143.1"/>
			</g>
		</g>
		<g class="st1">
			<defs>
				<path id="SVGID_5_" class="st1" d="M16.6,111.7c-0.6-2.1-1.1-4.1-1.5-6.2l-1.8-9.8c0.4,2.1,0.9,4.1,1.5,6.2
					c10.9,37.4,53.9,58.6,95.8,47.3c0.6,3.3,1.2,6.5,1.8,9.8C70.5,170.3,27.5,149,16.6,111.7z"/>
			</defs>
			<use xlink:href="#SVGID_5_"  style="overflow:visible;fill:#A7A9AC;"/>
			<clipPath id="SVGID_6_">
				<use xlink:href="#SVGID_5_"  style="overflow:visible;"/>
			</clipPath>
			<g class="st5">
				<path class="st3" d="M111.7,148.8l1.8,9.8c-0.4,0.1-0.8,0.2-1.1,0.3c-41.9,11.3-84.9-9.9-95.8-47.3c-0.6-2.1-1.1-4.1-1.5-6.2
					l-1.8-9.8c0.4,2.1,0.9,4.1,1.5,6.2c10.9,37.4,53.9,58.6,95.8,47.3C110.9,149.1,111.3,149,111.7,148.8"/>
			</g>
		</g>
		<g class="st1">
			<defs>
				<path id="SVGID_7_" class="st1" d="M170.5,66.6l1.8,9.8c6.8,36.5-18.7,73.4-59.4,84.4c-43.1,11.6-87.3-10.2-98.5-48.6
					c-0.6-2.1-1.1-4.3-1.5-6.4l-1.8-9.8c0.4,2.1,0.9,4.3,1.5,6.4c11.2,38.4,55.4,60.2,98.5,48.6C151.9,140.1,177.3,103.1,170.5,66.6
					z"/>
			</defs>
			<use xlink:href="#SVGID_7_"  style="overflow:visible;fill:#A7A9AC;"/>
			<clipPath id="SVGID_8_">
				<use xlink:href="#SVGID_7_"  style="overflow:visible;"/>
			</clipPath>
			<g class="st6">
				<polyline class="st3" points="170.5,66.6 172.3,76.4 172.3,76.4 170.5,66.6 170.5,66.6 				"/>
				<path class="st3" d="M170.5,66.6l1.8,9.8c3,16.3-0.4,32.7-8.7,46.9l-1.8-9.8C170.1,99.3,173.6,82.9,170.5,66.6"/>
				<path class="st3" d="M161.8,113.5l1.8,9.8c-3,5.1-6.6,9.9-10.8,14.3l-1.8-9.8C155.2,123.4,158.8,118.6,161.8,113.5"/>
				<path class="st3" d="M151,127.8l1.8,9.8c-3.3,3.5-7,6.7-11,9.6l-1.8-9.8C143.9,134.5,147.6,131.2,151,127.8"/>
				<path class="st3" d="M139.9,137.4l1.8,9.8c-3.8,2.8-7.9,5.3-12.2,7.4l-1.8-9.8C132,142.6,136.1,140.1,139.9,137.4"/>
				<path class="st3" d="M127.7,144.8l1.8,9.8c-4.8,2.4-10,4.4-15.4,5.9l-1.8-9.8C117.7,149.2,122.9,147.2,127.7,144.8"/>
				<path class="st3" d="M112.3,150.8l1.8,9.8c-0.4,0.1-0.8,0.2-1.2,0.3c-43.1,11.6-87.3-10.2-98.5-48.6c-0.6-2.1-1.1-4.3-1.5-6.4
					l-1.8-9.8c0.4,2.1,0.9,4.3,1.5,6.4c11.2,38.4,55.4,60.2,98.5,48.6C111.5,151,111.9,150.9,112.3,150.8"/>
			</g>
		</g>
		<g>
			<path class="st7" d="M70.5,11.6C113.6,0,157.8,21.8,169,60.2c11.2,38.4-14.8,79.2-57.9,90.8s-87.3-10.2-98.5-48.6
				C1.4,64,27.4,23.3,70.5,11.6z M110.6,149.2c41.9-11.3,67.2-51,56.3-88.3C156,23.4,113,2.2,71,13.5s-67.2,51-56.3,88.3
				C25.6,139.3,68.6,160.5,110.6,149.2"/>
		</g>
	</g>
</g>
<g>
	<g>
		<g class="st1">
			<g>
				<polygon class="st8" points="149.7,80.5 149.4,88.4 92.4,38.3 92.7,30.5 				"/>
			</g>
			<g>
				<polygon class="st9" points="92.7,30.5 92.4,38.3 34.3,86.4 34.5,78.6 				"/>
			</g>
			<g>
				<polygon class="st10" points="91.6,128.7 91.3,136.5 34.3,86.4 34.5,78.6 				"/>
			</g>
			<g>
				<polygon class="st11" points="149.7,80.5 149.4,88.4 91.3,136.5 91.6,128.7 				"/>
			</g>
			<g>
				<polygon class="st12" points="149.7,80.5 91.6,128.7 34.5,78.6 92.7,30.5 				"/>
			</g>
			<g>
				<polygon class="st8" points="91.2,129.6 90.9,137.4 32.9,86.4 33.1,78.6 				"/>
			</g>
			<g>
				<path class="st13" d="M151.1,80.6l-59.6,49.3l-0.3-0.3l-58.1-51l0.4-0.3l59.2-49L151.1,80.6z M34.5,78.6l57,50.1l58.1-48.1
					l-57-50.1L34.5,78.6"/>
			</g>
			<g>
				<polygon class="st9" points="151.1,80.6 150.9,88.4 91.3,137.7 91.5,129.9 				"/>
			</g>
			<g>
				<polygon class="st8" points="91.5,129.9 91.3,137.7 90.9,137.4 91.2,129.6 				"/>
			</g>
		</g>
	</g>
</g>
<polygon class="st14" points="35.9,73.7 147.6,75.7 92,122.5 "/>
<polygon class="st15" points="35.9,73.7 147.6,75.7 138.1,84 "/>
</svg>
