<?xml version="1.0" encoding="utf-8"?>
<!-- Generator: Adobe Illustrator 22.1.0, SVG Export Plug-In . SVG Version: 6.00 Build 0)  -->
<svg version="1.1" id="Layer_1" xmlns="http://www.w3.org/2000/svg" xmlns:xlink="http://www.w3.org/1999/xlink" x="0px" y="0px"
	 viewBox="0 0 400 150" style="enable-background:new 0 0 400 150;" xml:space="preserve">
<style type="text/css">
	.st0{fill:#363237;}
	.st1{enable-background:new    ;}
	.st2{clip-path:url(#SVGID_2_);enable-background:new    ;}
	.st3{fill:#A7A9AC;}
	.st4{clip-path:url(#SVGID_4_);enable-background:new    ;}
	.st5{clip-path:url(#SVGID_6_);enable-background:new    ;}
	.st6{clip-path:url(#SVGID_8_);enable-background:new    ;}
	.st7{fill:#A7A9AC;stroke:#002C4F;stroke-miterlimit:10;}
	.st8{fill:#808080;}
	.st9{fill:#9F9F9F;}
	.st10{fill:#00182B;}
	.st11{fill:#001E35;}
	.st12{fill:#ECECEC;}
	.st13{fill:#002C50;}
	.st14{fill:#D09683;}
	.st15{fill:#FFFFFF;}
</style>
<g>
	<g>
		<path class="st0" d="M22.3,102.4c-0.7-2.8-2-5.5-5.6-5.6c-3.2,0-4.5,2.3-4.5,4.5c0,3,2,4.5,5.2,6.2c3.3,1.7,7.1,3.6,7.1,8.4
			c0,4.4-3.7,8-9.1,7.9c-2.3,0-4.6-0.7-6.4-1.3c-0.3-1-0.8-4.5-1.1-6.5l1.3-0.3c0.7,2.6,2.5,6.6,6.8,6.6c3.1,0,5-2,5-5
			c0-3.1-2.1-4.6-5.3-6.3c-2.7-1.5-6.8-3.5-6.8-8.3c0-4,3-7.3,8.4-7.3c2.4,0,4.8,0.6,5.7,0.7c0.2,1.5,0.3,3.3,0.6,6L22.3,102.4z"/>
		<path class="st0" d="M28.2,123.3l0-1.2c3.4-0.4,3.7-0.5,3.7-4.1l0.1-16.7c0-3.6-0.3-3.8-3.7-4.2l0-1.2l11.1,0l0,1.2
			c-3.4,0.4-3.8,0.5-3.8,4.1l-0.1,16.7c0,3.6,0.3,3.7,3.7,4.1l0,1.2L28.2,123.3z"/>
		<path class="st0" d="M57.4,102.6c-0.7-2.8-2-5.5-5.6-5.6c-3.2,0-4.5,2.3-4.5,4.5c0,3,2,4.5,5.2,6.2s7.1,3.6,7.1,8.4
			c0,4.4-3.7,8-9.1,7.9c-2.3,0-4.6-0.7-6.4-1.3c-0.3-1-0.8-4.5-1.1-6.5l1.3-0.3c0.7,2.6,2.5,6.6,6.8,6.6c3.1,0,5-2,5-5
			c0-3.1-2.1-4.6-5.3-6.3c-2.7-1.5-6.8-3.5-6.8-8.3c0-4,3-7.3,8.4-7.3c2.4,0,4.8,0.6,5.7,0.7c0.2,1.5,0.3,3.3,0.6,6L57.4,102.6z"/>
		<path class="st0" d="M63.3,96.1l11,0l0,1.2c-3.2,0.3-3.8,0.6-3.8,4.3l0,7.2c0.8-0.1,1.8-0.8,3-1.9c2.3-2.2,5.1-5.1,7-7.2
			c1.2-1.4,1.1-2-0.7-2.2l-1.2-0.1l0-1.2l10,0l0,1.2c-3.1,0.4-4.2,0.6-7,3.5c-1.2,1.2-4.5,4.4-7.1,7c3.1,3.8,7.7,9.2,9.8,11.5
			c2.1,2.3,2.6,2.7,5.2,3l0,1.2l-6.6,0c-3.2-3.7-6.5-7.7-10.3-12.2c-0.9-1.2-1.6-1.3-2.3-1.2l0,8c0,3.7,0.4,3.9,3.8,4.3l0,1.2l-11,0
			l0-1.2c3.4-0.3,3.7-0.6,3.7-4.2l0.1-16.4c0-3.8-0.3-4.1-3.7-4.3L63.3,96.1z"/>
		<path class="st0" d="M104.2,123.6l0-1.2c2.7-0.3,3-0.7,2.4-2.3c-0.5-1.6-1.4-3.7-2.2-6.4l-8.9,0c-0.7,1.9-1.3,3.5-1.9,5.2
			c-0.9,2.7-0.3,3.1,3,3.5l0,1.2l-9.5,0l0-1.2c2.6-0.3,3.3-0.6,4.7-4.4l8.6-22l1.3-0.2c2.6,7.2,5.4,15.1,8,22.4
			c1.3,3.7,1.7,4,4.6,4.3l0,1.2L104.2,123.6z M100.1,101.2c-1.3,3.6-2.8,7.4-4,10.7l7.7,0L100.1,101.2z"/>
		<path class="st0" d="M162.2,97.6c-2.9,0.4-3.3,0.7-4.4,4.2c-1.4,4.2-4.7,14.8-7,22.4l-1.4,0c-2.1-6.6-4.9-14.7-7-20.9
			c-2.4,7.2-4.9,14.4-7.1,20.8l-1.4,0c-2-7.2-4.4-15.1-6.6-22.4c-1.1-3.4-1.5-3.9-4.2-4.2l0-1.2l10.2,0l0,1.2
			c-3.1,0.3-3.1,0.8-2.6,2.9c1.6,5.7,3.2,11.3,4.9,17.2c2.3-6.7,4.8-14,6.9-20.8l1.3,0c2.3,7.1,4.6,13.8,7,20.9
			c1.8-5.6,4.1-13,5.1-16.7c0.6-2.4,0.3-3-3.2-3.4l0-1.2l9.5,0L162.2,97.6z"/>
		<path class="st0" d="M184.7,117.2c-0.3,1.1-1.4,5.4-1.8,6.7l-20.1-0.1l0-1.2c3.8-0.3,4.1-0.7,4.1-4.1l0.1-16.6
			c0-3.7-0.4-3.9-3.5-4.3l0-1.2l12.6,0c3.9,0,5.5,0,6-0.1c0,1,0.2,4.2,0.4,6.4l-1.2,0.2c-0.4-1.4-0.8-2.3-1.2-3.2
			c-0.7-1.4-1.6-1.7-4.1-1.7l-3.9,0c-1.3,0-1.4,0.1-1.4,1.3l0,9.3l4.6,0c3.1,0,3.3-0.6,3.8-3.5l1.3,0l0,8.6l-1.3,0
			c-0.5-3-0.9-3.4-3.8-3.5l-4.5,0l0,8.4c0,2.9,0.9,3.2,3,3.2l3.8,0c2.5,0,2.9-0.4,3.8-1.5c0.8-0.9,1.7-2.6,2.2-3.9L184.7,117.2z"/>
		<path class="st0" d="M201.8,109.1c4,0.7,7.2,2.6,7.2,6.7c0,2.9-1.6,5.1-4,6.5c-2.2,1.2-4.3,1.6-7.2,1.6l-10.2,0l0-1.2
			c3.5-0.3,3.7-0.7,3.7-4l0.1-16.8c0-3.5-0.4-3.8-3.7-4.1l0-1.2l10.8,0c3.1,0,5,0.6,6.4,1.5c1.4,1,2.4,2.6,2.4,4.7
			C207.3,106.7,204.1,108.5,201.8,109.1z M194.9,118.6c0,3,0.7,3.8,3.6,3.8c3.2,0,6.4-1.7,6.4-6.2c0-4.3-3-6.1-8-6.2l-2,0
			L194.9,118.6z M197,108.6c4.5,0,6.4-1.8,6.4-5.3c0-2.9-1.8-5.2-5.7-5.2c-1.2,0-1.9,0.1-2.3,0.4c-0.3,0.3-0.5,0.7-0.5,2.1l0,8
			L197,108.6z"/>
		<path class="st0" d="M233.5,96.7c5.8,0,9.5,1.2,12.1,3.7c2,2,3.5,5,3.5,9c0,4.9-2,8.9-5.2,11.3c-3.1,2.4-7.2,3.3-12.2,3.3l-9.7,0
			l0-1.2c3.6-0.3,3.7-0.6,3.7-4.1l0.1-16.7c0-3.6-0.5-3.8-3.7-4.1l0-1.2L233.5,96.7z M229.3,118.4c0,3.1,1.3,4,4.4,4
			c7.4,0,11.3-5.1,11.3-12.5c0-4.6-1.5-8.1-4.8-10.1c-1.9-1.2-4.3-1.7-7.1-1.7c-1.9,0-2.9,0.2-3.3,0.6c-0.4,0.3-0.5,0.7-0.5,2.3
			L229.3,118.4z"/>
		<path class="st0" d="M274.3,117.4c-0.3,1.1-1.4,5.4-1.8,6.7l-20.1-0.1l0-1.2c3.8-0.3,4.1-0.7,4.1-4.1l0.1-16.6
			c0-3.7-0.4-3.9-3.5-4.3l0-1.2l12.6,0c3.9,0,5.5,0,6-0.1c0,1,0.2,4.2,0.4,6.4l-1.2,0.2c-0.4-1.4-0.8-2.3-1.2-3.2
			c-0.7-1.4-1.6-1.7-4.1-1.7l-3.9,0c-1.3,0-1.4,0.1-1.4,1.3l0,9.3l4.6,0c3.1,0,3.3-0.6,3.8-3.5l1.3,0l0,8.6l-1.3,0
			c-0.5-3-0.9-3.4-3.8-3.5l-4.5,0l0,8.4c0,2.9,0.9,3.2,3,3.2l3.8,0c2.5,0,2.9-0.4,3.8-1.5c0.8-0.9,1.7-2.6,2.2-3.9L274.3,117.4z"/>
		<path class="st0" d="M291.6,103.3c-0.7-2.8-2-5.5-5.6-5.6c-3.2,0-4.5,2.3-4.5,4.5c0,3,2,4.5,5.2,6.2c3.3,1.7,7.1,3.6,7.1,8.4
			c0,4.4-3.7,8-9.1,7.9c-2.3,0-4.6-0.7-6.4-1.3c-0.3-1-0.8-4.5-1.1-6.5l1.3-0.3c0.7,2.6,2.5,6.6,6.8,6.6c3.1,0,5-2,5-5
			c0-3.1-2.1-4.6-5.3-6.3c-2.7-1.5-6.8-3.5-6.8-8.3c0-4,3-7.3,8.4-7.3c2.4,0,4.8,0.6,5.7,0.7c0.2,1.5,0.3,3.3,0.6,6L291.6,103.3z"/>
		<path class="st0" d="M297.5,124.2l0-1.2c3.4-0.4,3.7-0.5,3.7-4.1l0.1-16.7c0-3.6-0.3-3.8-3.7-4.2l0-1.2l11.1,0l0,1.2
			c-3.4,0.4-3.8,0.5-3.8,4.1l-0.1,16.7c0,3.6,0.3,3.7,3.7,4.1l0,1.2L297.5,124.2z"/>
		<path class="st0" d="M339.3,112.9c-2.6,0.3-2.7,0.6-2.7,3.1l0,3.5c0,1.5,0,2.9,0.2,4c-2.6,0.6-5.8,1.5-9.3,1.5
			c-9.2,0-15.2-6-15.2-14.4c0-9.1,7.2-14.1,15.4-14.1c4.4,0,7.3,1,8.6,1.1c0.1,1.6,0.3,4.2,0.6,6.8l-1.2,0.2c-1-3.6-2.2-5.2-4.8-6.1
			c-0.9-0.3-2.4-0.5-3.7-0.5c-6.3,0-10.5,4.1-10.5,12.1c0,6.7,3.3,13.3,11.4,13.3c1.4,0,2.7-0.2,3.5-0.7c0.9-0.5,1.4-1,1.4-2.8
			l0-3.4c0-3.1-0.3-3.4-4.3-3.7l0-1.2l10.6,0L339.3,112.9z"/>
		<path class="st0" d="M371.3,98.3c-2.6,0.3-3.5,0.7-3.6,2.6c0,1.3-0.1,3.1-0.1,7l-0.1,16.8l-1.6,0l-17.6-22l0,10.5
			c0,3.8,0.1,5.7,0.2,6.9c0.1,2.1,1.1,2.8,4.1,3l0,1.2l-10,0l0-1.2c2.6-0.2,3.6-0.8,3.7-2.9c0.1-1.3,0.2-3.2,0.2-7.1l0-10.7
			c0-1.2-0.1-1.8-0.8-2.8c-0.8-1.1-1.6-1.3-3.7-1.5l0-1.2l6.2,0l17.5,21.2l0-10.3c0-3.9-0.1-5.7-0.2-7c-0.1-1.9-1.1-2.5-4.4-2.7
			l0-1.2l10.2,0L371.3,98.3z"/>
		<path class="st0" d="M388.6,103.6c-0.7-2.8-2-5.5-5.6-5.6c-3.2,0-4.5,2.3-4.5,4.5c0,3,2,4.5,5.2,6.2c3.3,1.7,7.1,3.6,7.1,8.4
			c0,4.4-3.7,8-9.1,7.9c-2.3,0-4.6-0.7-6.4-1.3c-0.3-1-0.8-4.5-1.1-6.5l1.3-0.3c0.7,2.6,2.5,6.6,6.8,6.6c3.1,0,5-2,5-5
			c0-3.1-2.1-4.6-5.3-6.3c-2.7-1.5-6.8-3.5-6.8-8.3c0-4,3-7.3,8.4-7.3c2.4,0,4.8,0.6,5.7,0.7c0.2,1.5,0.3,3.3,0.6,6L388.6,103.6z"/>
	</g>
</g>
<polygon class="st0" points="8.6,87 15.5,91.8 22.8,87 15.7,89.8 "/>
<polygon class="st0" points="43.6,87 50.5,91.8 57.8,87 50.7,89.8 "/>
<g>
	<g class="st1">
		<g class="st1">
			<defs>
				<path id="SVGID_1_" class="st1" d="M234.2,42.3l0.8,4.4c-0.2-0.9-0.4-1.9-0.7-2.8c-4.9-16.8-24.2-26.3-43-21.2
					c-17.8,4.8-28.9,20.9-25.9,36.9l-0.8-4.4c-3-15.9,8.1-32.1,25.9-36.9c18.8-5.1,38.1,4.4,43,21.2C233.8,40.5,234,41.4,234.2,42.3
					z"/>
			</defs>
			<use xlink:href="#SVGID_1_"  style="overflow:visible;fill:#A7A9AC;"/>
			<clipPath id="SVGID_2_">
				<use xlink:href="#SVGID_1_"  style="overflow:visible;"/>
			</clipPath>
			<g class="st2">
				<path class="st3" d="M234.2,42.3l0.8,4.4c-0.2-0.9-0.4-1.9-0.7-2.8c-4.9-16.8-24.2-26.3-43-21.2c-0.2,0-0.3,0.1-0.5,0.1
					l-0.8-4.4c0.2,0,0.3-0.1,0.5-0.1c18.8-5.1,38.1,4.4,43,21.2C233.8,40.5,234,41.4,234.2,42.3"/>
				<path class="st3" d="M190,18.5l0.8,4.4c-2.4,0.7-4.6,1.5-6.7,2.6l-0.8-4.4C185.4,20,187.7,19.1,190,18.5"/>
				<path class="st3" d="M183.3,21.1l0.8,4.4c-1.9,0.9-3.7,2-5.3,3.2l-0.8-4.4C179.6,23.1,181.4,22,183.3,21.1"/>
				<path class="st3" d="M178,24.3l0.8,4.4c-1.7,1.3-3.4,2.7-4.8,4.2l-0.8-4.4C174.6,27,176.2,25.6,178,24.3"/>
				<path class="st3" d="M173.2,28.5l0.8,4.4c-1.8,1.9-3.4,4-4.7,6.2l-0.8-4.4C169.7,32.5,171.3,30.4,173.2,28.5"/>
				<path class="st3" d="M168.4,34.7l0.8,4.4c-3.6,6.2-5.1,13.3-3.8,20.4l-0.8-4.4C163.3,48.1,164.8,40.9,168.4,34.7"/>
				<polyline class="st3" points="164.6,55.2 165.4,59.6 165.4,59.6 164.6,55.2 164.6,55.2 				"/>
			</g>
		</g>
		<g class="st1">
			<defs>
				<path id="SVGID_3_" class="st1" d="M235,46.7c2.6,13.8-5.5,27.8-19.2,34.4c-0.3-1.5-0.5-2.9-0.8-4.4
					c13.8-6.6,21.8-20.6,19.2-34.4C234.4,43.6,234.8,45.4,235,46.7z"/>
			</defs>
			<use xlink:href="#SVGID_3_"  style="overflow:visible;fill:#A7A9AC;"/>
			<clipPath id="SVGID_4_">
				<use xlink:href="#SVGID_3_"  style="overflow:visible;"/>
			</clipPath>
			<g class="st4">
				<polyline class="st3" points="234.2,42.3 235,46.7 235,46.7 234.2,42.3 234.2,42.3 				"/>
				<path class="st3" d="M234.2,42.3l0.8,4.4c1.3,7.1-0.2,14.3-3.8,20.4l-0.8-4.4C234,56.6,235.5,49.4,234.2,42.3"/>
				<path class="st3" d="M230.4,62.8l0.8,4.4c-1.3,2.2-2.9,4.3-4.7,6.2l-0.8-4.4C227.5,67.1,229.1,65,230.4,62.8"/>
				<path class="st3" d="M225.7,69l0.8,4.4c-1.5,1.5-3.1,2.9-4.8,4.2l-0.8-4.4C222.6,71.9,224.2,70.5,225.7,69"/>
				<path class="st3" d="M220.8,73.2l0.8,4.4c-1.7,1.2-3.4,2.3-5.3,3.2l-0.8-4.4C217.4,75.5,219.2,74.4,220.8,73.2"/>
				<path class="st3" d="M215.5,76.5l0.8,4.4c-2.1,1-4.3,1.9-6.7,2.6l-0.8-4.4C211.1,78.4,213.4,77.5,215.5,76.5"/>
			</g>
		</g>
		<g class="st1">
			<defs>
				<path id="SVGID_5_" class="st1" d="M166.1,62.4c-0.3-0.9-0.5-1.9-0.7-2.8l-0.8-4.4c0.2,0.9,0.4,1.9,0.7,2.8
					c4.9,16.8,24.2,26.3,43,21.2c0.3,1.5,0.5,2.9,0.8,4.4C190.3,88.7,171,79.1,166.1,62.4z"/>
			</defs>
			<use xlink:href="#SVGID_5_"  style="overflow:visible;fill:#A7A9AC;"/>
			<clipPath id="SVGID_6_">
				<use xlink:href="#SVGID_5_"  style="overflow:visible;"/>
			</clipPath>
			<g class="st5">
				<path class="st3" d="M208.8,79l0.8,4.4c-0.2,0-0.3,0.1-0.5,0.1c-18.8,5.1-38.1-4.4-43-21.2c-0.3-0.9-0.5-1.9-0.7-2.8l-0.8-4.4
					c0.2,0.9,0.4,1.9,0.7,2.8c4.9,16.8,24.2,26.3,43,21.2C208.4,79.1,208.6,79.1,208.8,79"/>
			</g>
		</g>
		<g class="st1">
			<defs>
				<path id="SVGID_7_" class="st1" d="M235.2,42.2l0.8,4.4c3,16.4-8.4,33-26.7,37.9c-19.4,5.2-39.2-4.6-44.2-21.8
					c-0.3-1-0.5-1.9-0.7-2.9l-0.8-4.4c0.2,1,0.4,1.9,0.7,2.9c5,17.3,24.9,27,44.2,21.8C226.8,75.1,238.2,58.5,235.2,42.2z"/>
			</defs>
			<use xlink:href="#SVGID_7_"  style="overflow:visible;fill:#A7A9AC;"/>
			<clipPath id="SVGID_8_">
				<use xlink:href="#SVGID_7_"  style="overflow:visible;"/>
			</clipPath>
			<g class="st6">
				<polyline class="st3" points="235.2,42.2 236,46.5 236,46.5 235.2,42.2 235.2,42.2 				"/>
				<path class="st3" d="M235.2,42.2l0.8,4.4c1.4,7.3-0.2,14.7-3.9,21l-0.8-4.4C235,56.8,236.5,49.5,235.2,42.2"/>
				<path class="st3" d="M231.3,63.2l0.8,4.4c-1.3,2.3-3,4.4-4.9,6.4l-0.8-4.4C228.3,67.6,229.9,65.5,231.3,63.2"/>
				<path class="st3" d="M226.4,69.6l0.8,4.4c-1.5,1.6-3.1,3-4.9,4.3l-0.8-4.4C223.2,72.6,224.9,71.1,226.4,69.6"/>
				<path class="st3" d="M221.4,73.9l0.8,4.4c-1.7,1.2-3.5,2.4-5.5,3.3l-0.8-4.4C217.9,76.3,219.7,75.1,221.4,73.9"/>
				<path class="st3" d="M216,77.2l0.8,4.4c-2.2,1.1-4.5,2-6.9,2.7l-0.8-4.4C211.5,79.2,213.8,78.3,216,77.2"/>
				<path class="st3" d="M209,79.9l0.8,4.4c-0.2,0-0.3,0.1-0.5,0.1c-19.4,5.2-39.2-4.6-44.2-21.8c-0.3-1-0.5-1.9-0.7-2.9l-0.8-4.4
					c0.2,1,0.4,1.9,0.7,2.9c5,17.3,24.9,27,44.2,21.8C208.7,80,208.9,79.9,209,79.9"/>
			</g>
		</g>
		<g>
			<path class="st7" d="M190.3,17.5c19.4-5.2,39.2,4.6,44.2,21.8c5,17.3-6.6,35.5-26,40.8s-39.2-4.6-44.2-21.8
				C159.3,41,170.9,22.7,190.3,17.5z M208.3,79.2c18.8-5.1,30.1-22.9,25.3-39.6c-4.9-16.8-24.2-26.3-43-21.2S160.4,41.2,165.3,58
				C170.2,74.7,189.5,84.3,208.3,79.2"/>
		</g>
	</g>
</g>
<g>
	<g>
		<g class="st1">
			<g>
				<polygon class="st8" points="225.5,46.2 225.3,54.1 200.1,31.9 200.3,24.1 				"/>
			</g>
			<g>
				<polygon class="st9" points="226.9,46.3 226.7,54.1 226.3,54.4 226.6,46.6 				"/>
			</g>
			<g>
				<polygon class="st9" points="200.3,24.1 200.1,31.9 174.4,53.2 174.6,45.4 				"/>
			</g>
			<g>
				<polygon class="st10" points="199.8,67.5 199.6,75.3 174.4,53.2 174.6,45.4 				"/>
			</g>
			<g>
				<polygon class="st11" points="225.5,46.2 225.3,54.1 199.6,75.3 199.8,67.5 				"/>
			</g>
			<g>
				<path class="st12" d="M226.6,46.6l-26.8,22.2l-26.6-23.4l27.1-22.5l26.6,23.4L226.6,46.6z M200.3,24.1l-25.7,21.3l25.2,22.1
					l25.7-21.3L200.3,24.1"/>
			</g>
			<g>
				<polygon class="st13" points="225.5,46.2 199.8,67.5 174.6,45.4 200.3,24.1 				"/>
			</g>
			<g>
				<polygon class="st9" points="226.6,46.6 226.3,54.4 199.5,76.5 199.8,68.7 				"/>
			</g>
			<g>
				<polygon class="st8" points="199.8,68.7 199.5,76.5 172.9,53.2 173.2,45.4 				"/>
			</g>
		</g>
	</g>
</g>
<polygon class="st14" points="174.8,45.3 224.9,46.2 199.9,67.2 "/>
<polygon class="st15" points="174.8,45.3 224.9,46.2 220.6,50 "/>
</svg>
